<svg height="480pt" viewBox="0 -63 480 479" width="480pt" xmlns="http://www.w3.org/2000/svg"><path d="m96 264.5h-24v-16h-16v16h-24v48h64zm-16 32h-32v-16h32zm0 0"/><path d="m80 96.5h-48v96h48zm-16 80h-16v-64h16zm0 0"/><path d="m144 96.5h-48v96h48zm-16 80h-16v-64h16zm0 0"/><path d="m192 160.5c17.671875 0 32-14.328125 32-32s-14.328125-32-32-32-32 14.328125-32 32 14.328125 32 32 32zm0-48c8.835938 0 16 7.164062 16 16s-7.164062 16-16 16-16-7.164062-16-16 7.164062-16 16-16zm0 0"/><path d="m272 160.5c17.671875 0 32-14.328125 32-32s-14.328125-32-32-32-32 14.328125-32 32 14.328125 32 32 32zm0-48c8.835938 0 16 7.164062 16 16s-7.164062 16-16 16-16-7.164062-16-16 7.164062-16 16-16zm0 0"/><path d="m352 160.5c17.671875 0 32-14.328125 32-32s-14.328125-32-32-32-32 14.328125-32 32 14.328125 32 32 32zm0-48c8.835938 0 16 7.164062 16 16s-7.164062 16-16 16-16-7.164062-16-16 7.164062-16 16-16zm0 0"/><path d="m224 176.5c-13.253906 0-24 10.746094-24 24s10.746094 24 24 24 24-10.746094 24-24-10.746094-24-24-24zm0 32c-4.417969 0-8-3.582031-8-8s3.582031-8 8-8 8 3.582031 8 8-3.582031 8-8 8zm0 0"/><path d="m40 208.5h32v16h-32zm0 0"/><path d="m104 208.5h32v16h-32zm0 0"/><path d="m408 104.5h40v16h-40zm0 0"/><path d="m408 136.5h40v16h-40zm0 0"/><path d="m392 176.5h56v16h-56zm0 0"/><path d="m392 208.5h56v16h-56zm0 0"/><path d="m168 176.5h16v16h-16zm0 0"/><path d="m168 208.5h16v16h-16zm0 0"/><path d="m264 176.5h16v16h-16zm0 0"/><path d="m264 208.5h16v16h-16zm0 0"/><path d="m296 176.5h16v16h-16zm0 0"/><path d="m328 176.5h16v16h-16zm0 0"/><path d="m360 176.5h16v16h-16zm0 0"/><path d="m296 208.5h16v16h-16zm0 0"/><path d="m328 208.5h16v16h-16zm0 0"/><path d="m360 208.5h16v16h-16zm0 0"/><path d="m0 352.5h480v-352h-480zm128-16v-80h16v80zm32 0v-80h16v80zm32 0v-80h16v80zm32 0v-80h16v80zm32 0v-80h16v80zm32 0v-80h16v80zm32 0v-80h16v80zm32 0v-80h16v80zm32 0v-80h16v80zm32 0v-80h16v80zm48 0h-16v-80h16zm0-96h-352v96h-96v-256h448zm-448-224h448v48h-448zm0 0"/><path d="m32 32.5h16v16h-16zm0 0"/><path d="m64 32.5h16v16h-16zm0 0"/><path d="m96 32.5h40v16h-40zm0 0"/><path d="m152 32.5h16v16h-16zm0 0"/><path d="m184 32.5h16v16h-16zm0 0"/></svg>