<?xml version="1.0" encoding="iso-8859-1"?>
<!-- Generator: Adobe Illustrator 19.0.0, SVG Export Plug-In . SVG Version: 6.00 Build 0)  -->
<svg version="1.1" id="Capa_1" xmlns="http://www.w3.org/2000/svg" xmlns:xlink="http://www.w3.org/1999/xlink" x="0px" y="0px"
	 viewBox="0 0 480 480" style="enable-background:new 0 0 480 480;" xml:space="preserve">
<g>
	<g>
		<rect x="96" y="32" width="16" height="16"/>
	</g>
</g>
<g>
	<g>
		<rect x="128" y="32" width="16" height="16"/>
	</g>
</g>
<g>
	<g>
		<rect x="160" y="32" width="16" height="16"/>
	</g>
</g>
<g>
	<g>
		<path d="M432,0H96C78.327,0,64,14.327,64,32v144H24c-4.418,0-8,3.582-8,8v144c0,4.418,3.582,8,8,8h40v24H24c-4.418,0-8,3.582-8,8
			v64c0,4.418,3.582,8,8,8h40v8c0,17.673,14.327,32,32,32h336c17.673,0,32-14.327,32-32V32C464,14.327,449.673,0,432,0z M64,424H32
			v-48h32V424z M32,320V192h208v128H32z M80,376h16v48H80V376z M448,448c0,8.837-7.163,16-16,16H96c-8.837,0-16-7.163-16-16v-8h272
			c1.238,0.014,2.462-0.26,3.576-0.8l64-32c3.954-1.971,5.562-6.774,3.591-10.729c-0.775-1.556-2.036-2.816-3.591-3.591l-64-32
			c-1.035-0.505-2.168-0.778-3.32-0.8c-0.088,0-0.168-0.064-0.256-0.064H80V336h168c4.418,0,8-3.582,8-8V184c0-4.418-3.582-8-8-8H80
			V80h368V448z M344,408v16H112v-16H344z M112,392v-16h232v16H112z M360,419.056v-38.112L398.112,400L360,419.056z M448,64H80V32
			c0-8.837,7.163-16,16-16h336c8.837,0,16,7.163,16,16V64z"/>
	</g>
</g>
<g>
	<g>
		<path d="M108.8,238.4l-9.6-12.8l-32,24c-3.535,2.651-4.251,7.665-1.6,11.2c0.455,0.606,0.994,1.145,1.6,1.6l32,24l9.6-12.8
			L85.336,256L108.8,238.4z"/>
	</g>
</g>
<g>
	<g>
		<path d="M206.4,251.2c-0.455-0.606-0.994-1.145-1.6-1.6l-32-24l-9.6,12.8l23.464,17.6L163.2,273.6l9.6,12.8l32-24
			C208.335,259.749,209.051,254.735,206.4,251.2z"/>
	</g>
</g>
<g>
	<g>
		<rect x="92.917" y="247.987" transform="matrix(0.3715 -0.9284 0.9284 0.3715 -152.1923 287.158)" width="86.16" height="16"/>
	</g>
</g>
<g>
	<g>
		<rect x="104" y="136" width="152" height="16"/>
	</g>
</g>
<g>
	<g>
		<rect x="136" y="104" width="120" height="16"/>
	</g>
</g>
<g>
	<g>
		<rect x="104" y="104" width="16" height="16"/>
	</g>
</g>
<g>
	<g>
		<rect x="304" y="320" width="120" height="16"/>
	</g>
</g>
<g>
	<g>
		<rect x="272" y="320" width="16" height="16"/>
	</g>
</g>
<g>
	<g>
		<path d="M392,235.8c33.063-22.091,41.958-66.803,19.867-99.867C389.775,102.87,345.063,93.976,312,116.067
			s-41.958,66.803-19.867,99.867c5.253,7.862,12.004,14.613,19.867,19.867V248h-16v16h16v24c0,4.418,3.582,8,8,8h64
			c4.418,0,8-3.582,8-8v-24h16v-16h-16V235.8z M376,280h-48v-16h48V280z M380,224.448c-2.473,1.428-3.997,4.065-4,6.92V248h-16
			v-44.688l21.656-21.656l-11.312-11.312L352,188.688l-18.344-18.344l-11.312,11.312L344,203.312V248h-16v-16.632
			c-0.003-2.855-1.527-5.492-4-6.92c-26.757-15.511-35.874-49.776-20.363-76.533C313.638,130.663,332.059,120.03,352,120
			c30.928,0.047,55.962,25.157,55.915,56.085C407.884,196.026,397.252,214.447,380,224.448z"/>
	</g>
</g>
<g>
</g>
<g>
</g>
<g>
</g>
<g>
</g>
<g>
</g>
<g>
</g>
<g>
</g>
<g>
</g>
<g>
</g>
<g>
</g>
<g>
</g>
<g>
</g>
<g>
</g>
<g>
</g>
<g>
</g>
</svg>
