<?xml version="1.0" encoding="iso-8859-1"?>
<!-- Generator: Adobe Illustrator 18.0.0, SVG Export Plug-In . SVG Version: 6.00 Build 0)  -->
<!DOCTYPE svg PUBLIC "-//W3C//DTD SVG 1.1//EN" "http://www.w3.org/Graphics/SVG/1.1/DTD/svg11.dtd">
<svg version="1.1" id="Capa_1" xmlns="http://www.w3.org/2000/svg" xmlns:xlink="http://www.w3.org/1999/xlink" x="0px" y="0px"
	 viewBox="0 0 487.16 487.16" style="enable-background:new 0 0 487.16 487.16;" xml:space="preserve">
<g>
	<path d="M243.578,291.482c-13.117,0-23.788,10.671-23.788,23.787c0,13.116,10.671,23.787,23.788,23.787
		c13.116,0,23.787-10.671,23.787-23.787C267.365,302.152,256.694,291.482,243.578,291.482z M243.578,330.556
		c-8.43,0-15.288-6.857-15.288-15.287c0-8.43,6.858-15.287,15.288-15.287c8.429,0,15.287,6.857,15.287,15.287
		C258.865,323.698,252.007,330.556,243.578,330.556z"/>
	<path d="M453.605,5.261H33.555C15.053,5.261,0,20.314,0,38.817v301.727c0,18.503,15.053,33.556,33.555,33.556h147.497
		l-17.482,58.059h-1.958c-14.255,0-25.852,11.599-25.852,25.855v19.635c0,2.348,1.903,4.25,4.25,4.25h207.144
		c2.347,0,4.25-1.902,4.25-4.25v-19.635c0-14.257-11.599-25.855-25.856-25.855h-1.957l-17.482-58.059h147.499
		c18.502,0,33.555-15.053,33.555-33.556V38.817C487.16,20.314,472.107,5.261,453.605,5.261z M8.5,175.505h119.559
		c1.652,0,3.155-0.958,3.853-2.456l26.642-57.209l28.721,112.467c0.439,1.72,1.9,2.984,3.665,3.174
		c1.763,0.194,3.461-0.737,4.254-2.325l27.999-56c0.021-0.042,0.042-0.085,0.061-0.128l47.225-102.927l29.496,102.331
		c0.524,1.82,2.19,3.073,4.084,3.073h41.495l21.097,70.96c0.518,1.742,2.086,2.962,3.902,3.035c0.058,0.003,0.115,0.004,0.172,0.004
		c1.748,0,3.326-1.074,3.962-2.715l27.616-71.284h76.357v10.833h-61.935c-2.347,0-4.25,1.902-4.25,4.25
		c0,2.348,1.903,4.25,4.25,4.25h61.935v75.691H8.5V175.505z M33.555,13.761h420.051c13.815,0,25.055,11.24,25.055,25.057v40.854
		H370.059c-2.347,0-4.25,1.902-4.25,4.25c0,2.348,1.903,4.25,4.25,4.25H478.66v78.834h-79.268c-1.755,0-3.329,1.078-3.963,2.715
		l-24.175,62.402l-18.456-62.078c-0.536-1.803-2.193-3.039-4.074-3.039h-41.467L275.476,56.744
		c-0.492-1.708-1.995-2.929-3.767-3.062c-1.759-0.133-3.439,0.851-4.18,2.466l-51.971,113.27l-22.869,45.739l-28.846-112.954
		c-0.444-1.74-1.935-3.014-3.724-3.18c-1.784-0.177-3.488,0.809-4.247,2.438l-30.523,65.544H8.5V48.838h100.225
		c2.347,0,4.25-1.902,4.25-4.25c0-2.348-1.903-4.25-4.25-4.25H8.5v-1.521C8.5,25.001,19.74,13.761,33.555,13.761z M342.902,458.015
		v15.385H144.258v-15.385c0-9.569,7.784-17.355,17.352-17.355h163.936C335.116,440.659,342.902,448.445,342.902,458.015z
		 M314.712,432.159H172.446l17.482-58.059h107.301L314.712,432.159z M453.605,365.601H33.555c-13.815,0-25.055-11.24-25.055-25.056
		v-30.429h75.037c2.347,0,4.25-1.902,4.25-4.25c0-2.348-1.903-4.25-4.25-4.25H8.5v-22.587h470.16v61.516
		C478.66,354.36,467.42,365.601,453.605,365.601z"/>
</g>
<g>
</g>
<g>
</g>
<g>
</g>
<g>
</g>
<g>
</g>
<g>
</g>
<g>
</g>
<g>
</g>
<g>
</g>
<g>
</g>
<g>
</g>
<g>
</g>
<g>
</g>
<g>
</g>
<g>
</g>
</svg>
